<svg width="24" height="24" viewBox="0 0 24 24" fill="none" xmlns="http://www.w3.org/2000/svg">
<g clip-path="url(#clip0_340_11200)">
<path d="M7 6C6.08075 6 5.1705 6.18106 4.32122 6.53284C3.47194 6.88463 2.70026 7.40024 2.05025 8.05025C1.40024 8.70026 0.884626 9.47194 0.532843 10.3212C0.18106 11.1705 0 12.0807 0 13C0 13.9193 0.18106 14.8295 0.532843 15.6788C0.884626 16.5281 1.40024 17.2997 2.05025 17.9497C2.70026 18.5998 3.47194 19.1154 4.32122 19.4672C5.1705 19.8189 6.08075 20 7 20C7.91925 20 8.82951 19.8189 9.67878 19.4672C10.5281 19.1154 11.2997 18.5998 11.9497 17.9497C12.5998 17.2997 13.1154 16.5281 13.4672 15.6788C13.8189 14.8295 14 13.9193 14 13C14 12.0807 13.8189 11.1705 13.4672 10.3212C13.1154 9.47194 12.5998 8.70026 11.9497 8.05025C11.2997 7.40024 10.5281 6.88463 9.67878 6.53284C8.82951 6.18106 7.91925 6 7 6ZM18 6.5C17.2044 6.5 16.4413 7.18482 15.8787 8.40381C15.3161 9.62279 15 11.2761 15 13C15 14.7239 15.3161 16.3772 15.8787 17.5962C16.4413 18.8152 17.2044 19.5 18 19.5C18.7956 19.5 19.5587 18.8152 20.1213 17.5962C20.6839 16.3772 21 14.7239 21 13C21 11.2761 20.6839 9.62279 20.1213 8.40381C19.5587 7.18482 18.7956 6.5 18 6.5ZM23 8C22.7348 8 22.4804 8.52678 22.2929 9.46447C22.1054 10.4021 22 11.6739 22 13C22 14.3261 22.1054 15.5979 22.2929 16.5355C22.4804 17.4732 22.7348 18 23 18C23.2652 18 23.5196 17.4732 23.7071 16.5355C23.8946 15.5979 24 14.3261 24 13C24 11.6739 23.8946 10.4021 23.7071 9.46447C23.5196 8.52678 23.2652 8 23 8Z" fill="#1F2534" fill-opacity="0.8"/>
</g>
<defs>
<clipPath id="clip0_340_11200">
<rect width="24" height="24" fill="white"/>
</clipPath>
</defs>
</svg>
