<svg width="24" height="24" viewBox="0 0 24 24" fill="none" xmlns="http://www.w3.org/2000/svg">
<path d="M20.6973 15.6948C20.6992 17.7751 19.201 19.5673 17.1638 19.9196C16.9073 19.9637 16.6483 19.9897 16.388 19.9872C16.3002 19.9863 16.2657 20.0214 16.2379 20.1018C15.8312 21.2695 15.0195 21.9656 13.7934 22.1412C12.9823 22.2572 12.2463 22.0397 11.6011 21.5326C11.5112 21.4619 11.4562 21.4607 11.3625 21.5277C10.6079 22.0674 9.76174 22.3065 8.83776 22.2506C7.03474 22.1418 5.51767 20.7637 5.23387 18.9867C5.21435 18.8639 5.1936 18.7402 5.19173 18.6164C5.18985 18.5134 5.15077 18.4737 5.05243 18.4544C4.50656 18.348 4.0112 18.1232 3.57417 17.7811C2.76987 17.1514 2.28731 16.3292 2.17499 15.3121C2.0469 14.1481 2.40645 13.1416 3.22528 12.3029C3.29129 12.2356 3.29541 12.1887 3.25038 12.1096C2.93559 11.56 2.78638 10.9648 2.81061 10.3335C2.87104 8.75817 3.96727 7.45664 5.49207 7.1344C5.66848 7.09691 5.76096 7.02775 5.83849 6.86057C6.59058 5.24023 7.85339 4.25476 9.60576 3.92973C10.8359 3.70144 11.9963 3.94587 13.0732 4.57924C13.1637 4.63264 13.2395 4.63693 13.3375 4.60841C15.0478 4.11218 16.5632 4.47319 17.8498 5.69655C18.6107 6.41984 19.0276 7.33522 19.151 8.37952C19.178 8.60781 19.1903 8.83826 19.1729 9.06779C19.1664 9.1546 19.1931 9.1909 19.2753 9.2213C20.0463 9.50669 20.578 10.0389 20.8106 10.8261C21.1003 11.8053 20.8569 12.664 20.1252 13.3779C20.0618 13.4399 20.0752 13.4778 20.1111 13.5398C20.4978 14.206 20.6981 14.9231 20.6973 15.6948ZM13.0658 15.3607C13.0664 16.2459 13.6347 17.0282 14.4405 17.2941C14.8443 17.4274 15.2608 17.4907 15.6837 17.5093C15.9855 17.5223 16.2869 17.5013 16.5658 17.3622C16.7851 17.2528 16.8884 17.0719 16.8784 16.8309C16.8685 16.5884 16.7599 16.407 16.5279 16.3104C16.4473 16.2769 16.3654 16.2496 16.2798 16.2348C16.0239 16.1891 15.7667 16.1507 15.5121 16.1002C15.0918 16.0165 14.9156 15.7941 14.91 15.3691C14.9051 14.9932 15.0071 14.6386 15.1228 14.2879C15.3344 13.6458 15.6196 13.0339 15.893 12.4169C16.1569 11.8211 16.4336 11.2302 16.62 10.6027C16.7227 10.2581 16.7717 9.91259 16.6783 9.5562C16.5362 9.01527 16.2121 8.65271 15.6531 8.54843C15.1414 8.45321 14.632 8.44237 14.1693 8.74756C14.0154 8.84868 13.8674 8.8245 13.7339 8.7066C13.6318 8.61696 13.5347 8.52205 13.4348 8.42994C12.9628 7.99415 12.3387 7.97275 11.8319 8.37074C11.6274 8.53138 11.4554 8.73056 11.2332 8.87012C11.0347 8.99479 10.8346 9.03012 10.6148 8.91291C10.4054 8.80123 10.1887 8.70295 9.97243 8.60493C9.75342 8.50601 9.54126 8.38381 9.29472 8.36301C8.51493 8.29664 7.69888 8.76004 7.35488 9.46445C7.20224 9.77618 7.07762 10.1 6.95945 10.426C6.41381 11.9328 5.96937 13.4719 5.50939 15.0056C5.30341 15.6921 5.54651 16.3675 6.12777 16.7383C6.58126 17.0273 7.07781 17.0987 7.59186 16.9443C8.00832 16.8189 8.23639 16.4837 8.39579 16.1071C8.92553 14.8578 9.40261 13.5872 9.90757 12.328C10.0465 11.9815 10.1811 11.6335 10.3285 11.2907C10.4773 10.9446 10.9051 10.8267 11.1588 11.0563C11.3136 11.1964 11.3545 11.3829 11.3393 11.5823C11.3226 11.7954 11.24 11.992 11.1625 12.1877C10.834 13.0184 10.4993 13.8466 10.1693 14.6766C10.1026 14.8444 10.0304 15.0109 10.0009 15.1911C9.95035 15.5004 10.0728 15.7746 10.3259 15.8837C10.584 15.9952 10.852 16.0138 11.1196 15.9166C11.431 15.8037 11.6171 15.56 11.7605 15.2783C12.253 14.3109 12.7418 13.3413 13.2341 12.3739C13.4614 11.927 13.6928 11.4822 13.9251 11.0379C14.0114 10.8733 14.1125 10.7173 14.2737 10.6149C14.4193 10.5228 14.5761 10.5159 14.7253 10.5997C14.8709 10.6813 14.8807 10.8302 14.8746 10.9772C14.8712 11.0563 14.8491 11.1335 14.8187 11.207C14.7549 11.3599 14.6953 11.5151 14.6245 11.6649C14.2151 12.5262 13.7995 13.3842 13.3937 14.2474C13.2227 14.6117 13.0447 14.9777 13.0658 15.3607ZM18.8086 21.7084C18.8096 21.137 18.3307 20.6593 17.7546 20.6578C17.1643 20.6556 16.6855 21.128 16.6829 21.714C16.6805 22.2868 17.1675 22.7728 17.7435 22.7735C18.3275 22.7741 18.8077 22.294 18.8086 21.7084ZM1.00256 12.9531C1.55808 12.9544 2.02551 12.4901 2.02331 11.9395C2.0208 11.3881 1.56334 10.9308 1.01248 10.9293C0.447909 10.9278 -0.000319829 11.3757 1.71234e-07 11.9411C0.000457314 12.5006 0.44736 12.9519 1.00256 12.9531ZM13.4417 1.62907C12.8834 1.62596 12.4284 2.07232 12.4252 2.62564C12.4219 3.17837 12.8753 3.6325 13.4308 3.63309C13.9841 3.63341 14.4286 3.19017 14.4296 2.63648C14.4309 2.08009 13.9914 1.63186 13.4417 1.62907ZM21.6619 7.89303C21.6594 7.43424 21.2683 7.04407 20.8077 7.04096C20.3375 7.03757 19.9392 7.43492 19.9423 7.90418C19.9456 8.37225 20.3253 8.74752 20.7962 8.74816C21.2813 8.74912 21.6646 8.3701 21.6619 7.89303ZM4.05033 5.44324C4.05033 5.8741 4.38565 6.21216 4.81367 6.2128C5.24722 6.21339 5.58354 5.87351 5.58199 5.43643C5.58043 5.01248 5.24453 4.68087 4.81801 4.68215C4.37938 4.68301 4.05056 5.009 4.05033 5.44324ZM12.0689 23.2133C12.0726 22.8545 11.7773 22.5589 11.4144 22.5577C11.0419 22.5565 10.7493 22.8452 10.7503 23.2128C10.7512 23.5753 11.0423 23.8625 11.4083 23.8625C11.7739 23.8629 12.0657 23.5762 12.0689 23.2133ZM22.3077 13.0171C21.959 13.0146 21.6566 13.317 21.6594 13.6654C21.6624 14.0096 21.9498 14.2922 22.2977 14.2929C22.6625 14.2936 22.9361 14.025 22.937 13.6645C22.938 13.3077 22.6579 13.0196 22.3077 13.0171ZM6.99415 0.994145C6.68677 0.992911 6.44951 1.2277 6.44951 1.53357C6.44951 1.83753 6.68923 2.07387 6.99634 2.07232C7.2944 2.07076 7.52795 1.83314 7.52795 1.53133C7.528 1.22674 7.2981 0.9957 6.99415 0.994145ZM23.5242 10.12C23.2736 10.1172 23.0465 10.3415 23.0434 10.5955C23.04 10.8582 23.2587 11.0769 23.5254 11.0775C23.7903 11.0785 23.9981 10.8725 24 10.6064C24.0025 10.3387 23.7915 10.1234 23.5242 10.12ZM4.55031 19.5828C4.5515 19.3285 4.33221 19.1095 4.07387 19.1071C3.81202 19.1048 3.59675 19.3251 3.59863 19.5931C3.60078 19.8549 3.81326 20.0617 4.0779 20.0599C4.33755 20.0583 4.54944 19.8446 4.55031 19.5828Z" fill="#1F2534" fill-opacity="0.8"/>
<path d="M13.0658 15.3612C13.0664 16.2464 13.6347 17.0287 14.4405 17.2945C14.8443 17.4279 15.2608 17.4912 15.6837 17.5098C15.9855 17.5228 16.2869 17.5017 16.5658 17.3627C16.7851 17.2532 16.8884 17.0724 16.8784 16.8314C16.8685 16.5888 16.7599 16.4075 16.5279 16.3109C16.4473 16.2774 16.3654 16.2501 16.2798 16.2352C16.0239 16.1896 15.7667 16.1511 15.5121 16.1007C15.0918 16.017 14.9156 15.7945 14.91 15.3696C14.9051 14.9936 15.0071 14.6391 15.1228 14.2883C15.3344 13.6463 15.6196 13.0343 15.893 12.4174C16.1569 11.8216 16.4336 11.2307 16.62 10.6032C16.7227 10.2586 16.7717 9.91305 16.6783 9.55666C16.5362 9.01573 16.2121 8.65317 15.6531 8.54889C15.1414 8.45367 14.632 8.44284 14.1693 8.74802C14.0154 8.84914 13.8674 8.82496 13.7339 8.70706C13.6318 8.61742 13.5347 8.52252 13.4348 8.4304C12.9628 7.99461 12.3387 7.97321 11.8319 8.3712C11.6274 8.53184 11.4554 8.73102 11.2332 8.87058C11.0347 8.99525 10.8346 9.03058 10.6148 8.91337C10.4054 8.80169 10.1887 8.70341 9.97243 8.6054C9.75342 8.50647 9.54126 8.38428 9.29472 8.36348C8.51493 8.2971 7.69888 8.7605 7.35488 9.46491C7.20224 9.77664 7.07762 10.1005 6.95945 10.4264C6.41381 11.9333 5.96937 13.4723 5.50939 15.0061C5.3034 15.6925 5.54651 16.368 6.12777 16.7387C6.58126 17.0277 7.07781 17.0992 7.59186 16.9447C8.00832 16.8194 8.23639 16.4842 8.39579 16.1076C8.92553 14.8582 9.4026 13.5877 9.90756 12.3285C10.0465 11.9819 10.1811 11.634 10.3285 11.2912C10.4773 10.9451 10.9051 10.8272 11.1588 11.0567C11.3136 11.1968 11.3545 11.3834 11.3393 11.5828C11.3226 11.7959 11.24 11.9925 11.1625 12.1882C10.834 13.0188 10.4993 13.847 10.1693 14.677C10.1026 14.8449 10.0304 15.0114 10.0009 15.1915C9.95035 15.5009 10.0728 15.7751 10.3259 15.8842C10.584 15.9956 10.852 16.0142 11.1196 15.9171C11.431 15.8042 11.6171 15.5604 11.7605 15.2787C12.253 14.3114 12.7418 13.3417 13.2341 12.3744C13.4614 11.9275 13.6928 11.4827 13.9251 11.0384C14.0114 10.8737 14.1125 10.7177 14.2737 10.6154C14.4193 10.5232 14.5761 10.5164 14.7253 10.6002C14.8709 10.6817 14.8807 10.8307 14.8746 10.9777C14.8712 11.0567 14.8491 11.134 14.8187 11.2075C14.7549 11.3604 14.6953 11.5155 14.6245 11.6654C14.2151 12.5267 13.7995 13.3846 13.3937 14.2478C13.2227 14.6121 13.0447 14.9781 13.0658 15.3612Z" fill="white"/>
</svg>
