<svg width="20" height="20" viewBox="0 0 20 20" fill="none" xmlns="http://www.w3.org/2000/svg">
<path fillRule="evenodd" clipRule="evenodd" d="M9.16667 17.5001V15.4167C9.16667 15.1866 9.35323 15.0001 9.58333 15.0001H10.4167C10.6468 15.0001 10.8333 15.1866 10.8333 15.4167V17.5001C10.8333 17.9603 11.2064 18.3334 11.6667 18.3334H16.6667C17.1275 18.3334 17.5 17.9601 17.5 17.5001V2.50005C17.5 2.04005 17.1275 1.66672 16.6667 1.66672H3.33333C2.87252 1.66672 2.5 2.04005 2.5 2.50005V17.5001C2.5 17.9601 2.87252 18.3334 3.33333 18.3334H8.33333C8.79359 18.3334 9.16667 17.9603 9.16667 17.5001ZM7.91667 13.3334C7.68656 13.3334 7.5 13.5199 7.5 13.7501V16.6667H4.16667V3.33338H15.8333V16.6667H12.5V13.7501C12.5 13.5199 12.3134 13.3334 12.0833 13.3334H7.91667ZM6.25 5.0209H8.75C8.9801 5.0209 9.16667 5.20747 9.16667 5.43757V7.10424C9.16667 7.33434 8.9801 7.52091 8.75 7.52091H6.25C6.0199 7.52091 5.83333 7.33434 5.83333 7.10424V5.43757C5.83333 5.20747 6.0199 5.0209 6.25 5.0209ZM13.75 5.0209H11.25C11.0199 5.0209 10.8333 5.20747 10.8333 5.43757V7.10424C10.8333 7.33434 11.0199 7.52091 11.25 7.52091H13.75C13.9801 7.52091 14.1667 7.33434 14.1667 7.10424V5.43757C14.1667 5.20747 13.9801 5.0209 13.75 5.0209ZM11.25 9.18757H13.75C13.9801 9.18757 14.1667 9.37414 14.1667 9.60424V11.2709C14.1667 11.501 13.9801 11.6876 13.75 11.6876H11.25C11.0199 11.6876 10.8333 11.501 10.8333 11.2709V9.60424C10.8333 9.37414 11.0199 9.18757 11.25 9.18757ZM8.75 9.18757H6.25C6.0199 9.18757 5.83333 9.37414 5.83333 9.60424V11.2709C5.83333 11.501 6.0199 11.6876 6.25 11.6876H8.75C8.9801 11.6876 9.16667 11.501 9.16667 11.2709V9.60424C9.16667 9.37414 8.9801 9.18757 8.75 9.18757Z" fill="#EE4C83"/>
</svg>
