<svg width="15" height="16" viewBox="0 0 15 16" fill="none" xmlns="http://www.w3.org/2000/svg">
<g clip-path="url(#clip0_117_1776)">
<path d="M12.0209 3.77954C11.1158 3.36426 10.1453 3.0583 9.13054 2.88306C9.11206 2.87968 9.0936 2.88813 9.08408 2.90503C8.95926 3.12704 8.821 3.41666 8.72418 3.6443C7.63274 3.4809 6.5469 3.4809 5.47784 3.6443C5.381 3.4116 5.23772 3.12704 5.11234 2.90503C5.10282 2.88869 5.08436 2.88024 5.06588 2.88306C4.05168 3.05774 3.08114 3.3637 2.17552 3.77954C2.16768 3.78292 2.16096 3.78856 2.1565 3.79588C0.31559 6.54616 -0.188712 9.22884 0.0586816 11.8783C0.059801 11.8912 0.0670772 11.9036 0.0771522 11.9115C1.29173 12.8035 2.46826 13.345 3.62294 13.7039C3.64142 13.7095 3.661 13.7028 3.67276 13.6875C3.9459 13.3145 4.18938 12.9212 4.39814 12.5076C4.41046 12.4834 4.3987 12.4547 4.37352 12.4451C3.98732 12.2986 3.61958 12.12 3.26584 11.9171C3.23786 11.9008 3.23562 11.8608 3.26136 11.8416C3.3358 11.7858 3.41026 11.7278 3.48134 11.6692C3.4942 11.6585 3.51212 11.6562 3.52724 11.663C5.85116 12.724 8.36708 12.724 10.6636 11.663C10.6787 11.6557 10.6966 11.6579 10.71 11.6686C10.7811 11.7272 10.8556 11.7858 10.9306 11.8416C10.9563 11.8608 10.9546 11.9008 10.9267 11.9171C10.5729 12.1239 10.2052 12.2986 9.81842 12.4445C9.79324 12.4541 9.78204 12.4834 9.79436 12.5076C10.0076 12.9207 10.2511 13.314 10.5192 13.687C10.5304 13.7028 10.5505 13.7095 10.569 13.7039C11.7293 13.345 12.9058 12.8035 14.1204 11.9115C14.131 11.9036 14.1377 11.8918 14.1389 11.8788C14.4349 8.8158 13.6429 6.15512 12.0394 3.79644C12.0354 3.78856 12.0287 3.78292 12.0209 3.77954ZM4.74518 10.265C4.04552 10.265 3.46902 9.6227 3.46902 8.83384C3.46902 8.04498 4.03434 7.40264 4.74518 7.40264C5.4616 7.40264 6.03252 8.05062 6.02132 8.83384C6.02132 9.6227 5.456 10.265 4.74518 10.265ZM9.46356 10.265C8.76392 10.265 8.18742 9.6227 8.18742 8.83384C8.18742 8.04498 8.75272 7.40264 9.46356 7.40264C10.18 7.40264 10.7509 8.05062 10.7397 8.83384C10.7397 9.6227 10.18 10.265 9.46356 10.265Z" fill="#1F2534" fill-opacity="0.8"/>
</g>
<defs>
<clipPath id="clip0_117_1776">
<rect width="14.2" height="16" fill="white"/>
</clipPath>
</defs>
</svg>
