<svg width="16" height="16" viewBox="0 0 16 16" fill="none" xmlns="http://www.w3.org/2000/svg">
<path fill-rule="evenodd" clip-rule="evenodd" d="M5.33333 2.17273C5.82425 2.17273 6.22222 2.5707 6.22222 3.06162C6.22222 3.51747 5.87907 3.89318 5.43699 3.94453L5.33333 3.95051H4.24691C3.8969 3.95051 3.60764 4.2106 3.56186 4.54805L3.55555 4.64187V12.148C3.55555 12.498 3.81564 12.7873 4.15309 12.8331L4.24691 12.8394H11.7531C12.1031 12.8394 12.3923 12.5793 12.4381 12.2419L12.4444 12.148L12.4381 11.0616C12.4381 10.5707 12.8361 10.1727 13.327 10.1727C13.7829 10.1727 14.1586 10.5159 14.2099 10.958L14.2159 11.0616L14.2222 12.148C14.2222 13.4612 13.1971 14.5349 11.9035 14.6127L11.7531 14.6172H4.24691C2.93375 14.6172 1.86001 13.5921 1.78228 12.2985L1.77777 12.148V4.64187C1.77777 3.32871 2.80287 2.25497 4.09649 2.17724L4.24691 2.17273H5.33333ZM14.2222 3.11838V3.06162L14.2162 2.95796C14.1649 2.51588 13.7892 2.17273 13.3333 2.17273L13.2716 2.17273L9.77777 2.17273L9.67411 2.17871C9.23203 2.23006 8.88888 2.60576 8.88888 3.06162L8.89486 3.16528C8.94621 3.60736 9.32192 3.95051 9.77777 3.95051H11.1009L6.49958 8.55794L6.42064 8.64723C6.13127 9.01901 6.15849 9.55588 6.50171 9.89655C6.87354 10.2656 7.47544 10.2647 7.8461 9.89443L12.4444 5.28994V6.61717L12.4504 6.72084C12.5018 7.16292 12.8775 7.50606 13.3333 7.50606C13.8242 7.50606 14.2222 7.10809 14.2222 6.61717V3.12019C14.2222 3.11959 14.2222 3.11898 14.2222 3.11838Z" fill="#1F2534" fill-opacity="0.8"/>
</svg>
