<svg width="16" height="16" viewBox="0 0 16 16" fill="none" xmlns="http://www.w3.org/2000/svg">
<g clip-path="url(#clip0_117_1728)">
<path fill-rule="evenodd" clip-rule="evenodd" d="M16 8C16 3.58393 12.4161 0 8 0C3.58393 0 0 3.58393 0 8C0 11.9959 2.92482 15.3079 6.75592 15.9011V10.3069H4.71267V8H6.75592V6.23687C6.75592 4.23481 7.94233 3.12255 9.77137 3.12255C10.6447 3.12255 11.551 3.28733 11.551 3.28733V5.23996H10.5458C9.54892 5.23996 9.23584 5.86612 9.23584 6.49228V7.99176H11.4604L11.1061 10.2987H9.23584V15.8929C13.0752 15.3079 16 11.9959 16 8Z" fill="#1F2534" fill-opacity="0.8"/>
</g>
<defs>
<clipPath id="clip0_117_1728">
<rect width="16" height="16" fill="white"/>
</clipPath>
</defs>
</svg>
