<svg width="16" height="16" viewBox="0 0 16 16" fill="none" xmlns="http://www.w3.org/2000/svg">
<path fillRule="evenodd" clipRule="evenodd" d="M1.33334 7.99992C1.33334 4.31803 4.31813 1.33325 8.00001 1.33325C9.76816 1.33325 11.4638 2.03564 12.714 3.28589C13.9643 4.53613 14.6667 6.23177 14.6667 7.99992C14.6667 9.76807 13.9643 11.4637 12.714 12.7139C11.4638 13.9642 9.76816 14.6666 8.00001 14.6666C6.23186 14.6666 4.53622 13.9642 3.28598 12.7139C2.03574 11.4637 1.33334 9.76807 1.33334 7.99992ZM2.66668 7.99992C2.66668 7.53955 2.72503 7.09277 2.83473 6.66659H5.14422C5.09295 7.104 5.06666 7.54907 5.06666 8.00024C5.06666 8.448 5.09319 8.89307 5.14527 9.33325H2.83603C2.72446 8.90137 2.66668 8.45361 2.66668 7.99992ZM3.3812 10.6666C3.61223 11.0668 3.89633 11.4387 4.22877 11.7712C4.80291 12.3453 5.49448 12.775 6.247 13.0369C5.87265 12.2823 5.58318 11.4873 5.38461 10.6666H3.3812ZM6.76189 10.6666C7.03191 11.6428 7.44915 12.5736 8.00001 13.4263C8.55087 12.5736 8.96803 11.6428 9.23813 10.6666H6.76189ZM10.6152 10.6666C10.4165 11.4873 10.1268 12.2824 9.75237 13.0371C10.5051 12.7752 11.197 12.3455 11.7713 11.7712C12.1037 11.4387 12.3878 11.0668 12.6188 10.6666H10.6152ZM13.164 9.33325H10.8547C10.9069 8.89307 10.9334 8.448 10.9334 8.00024C10.9334 7.55225 10.9068 7.10702 10.8547 6.66659H13.164C13.2756 7.09847 13.3333 7.54622 13.3333 7.99992C13.3333 8.45361 13.2756 8.90137 13.164 9.33325ZM9.51083 9.33325H6.48919C6.4301 8.89388 6.39999 8.44865 6.39999 8.00024C6.39999 7.5481 6.43002 7.10286 6.48813 6.66659H9.51075C9.56992 7.1062 9.60003 7.55168 9.60003 8.00024C9.60003 8.44865 9.56992 8.89388 9.51083 9.33325ZM5.38209 5.33325H3.38014C4.01507 4.2356 5.02988 3.38525 6.24488 2.96208C5.87346 3.70939 5.58212 4.5035 5.38209 5.33325ZM6.75945 5.33325H9.23788C8.96762 4.35669 8.55022 3.42562 7.99936 2.57292C7.45452 3.41423 7.03273 4.34294 6.75945 5.33325ZM10.6152 5.33325H12.6188C12.3878 4.93302 12.1037 4.56112 11.7713 4.22868C11.197 3.65438 10.5051 3.22453 9.75229 2.96265C10.1267 3.71737 10.4164 4.51253 10.6152 5.33325Z" fill="#1F2534"/>
</svg>
