<svg width="14" height="14" viewBox="0 0 14 14" fill="none" xmlns="http://www.w3.org/2000/svg">
<path fillRule="evenodd" clipRule="evenodd" d="M0.333344 7.00001C0.333344 3.32002 3.32 0.333344 7.00001 0.333344C10.68 0.333344 13.6667 3.32002 13.6667 7.00001C13.6667 10.68 10.68 13.6667 7.00001 13.6667C3.32 13.6667 0.333344 10.68 0.333344 7.00001ZM7.66668 10C7.66668 10.1841 7.51743 10.3333 7.33334 10.3333H6.66668C6.48259 10.3333 6.33334 10.1841 6.33334 10V6.66668C6.33334 6.48257 6.48259 6.33334 6.66668 6.33334H7.33334C7.51743 6.33334 7.66668 6.48257 7.66668 6.66668V10ZM7.00001 12.3333C4.05999 12.3333 1.66668 9.94001 1.66668 7.00001C1.66668 4.06001 4.05999 1.66668 7.00001 1.66668C9.94003 1.66668 12.3333 4.06001 12.3333 7.00001C12.3333 9.94001 9.94003 12.3333 7.00001 12.3333ZM7.33334 5.00001H6.66668C6.48259 5.00001 6.33334 4.85078 6.33334 4.66668V4.00001C6.33334 3.81591 6.48259 3.66668 6.66668 3.66668H7.33334C7.51743 3.66668 7.66668 3.81591 7.66668 4.00001V4.66668C7.66668 4.85078 7.51743 5.00001 7.33334 5.00001Z" fill="white" fill-opacity="0.65"/>
</svg>
