<?xml version="1.0" encoding="UTF-8"?>
<svg xmlns="http://www.w3.org/2000/svg" xmlns:xlink="http://www.w3.org/1999/xlink" width="16px" height="16px" viewBox="0 0 16 16" version="1.1">
<g id="surface1">
<path d="M 5.332031 2 C 3.492188 2 2 3.492188 2 5.332031 L 2 10.667969 C 2 12.507812 3.492188 14 5.332031 14 L 10.667969 14 C 12.507812 14 14 12.507812 14 10.667969 L 14 5.332031 C 14 3.492188 12.507812 2 10.667969 2 Z M 12 3.332031 C 12.367188 3.332031 12.667969 3.632812 12.667969 4 C 12.667969 4.367188 12.367188 4.667969 12 4.667969 C 11.632812 4.667969 11.332031 4.367188 11.332031 4 C 11.332031 3.632812 11.632812 3.332031 12 3.332031 Z M 8 4.667969 C 9.839844 4.667969 11.332031 6.160156 11.332031 8 C 11.332031 9.839844 9.839844 11.332031 8 11.332031 C 6.160156 11.332031 4.667969 9.839844 4.667969 8 C 4.667969 6.160156 6.160156 4.667969 8 4.667969 Z M 8 6 C 7.46875 6 6.960938 6.210938 6.585938 6.585938 C 6.210938 6.960938 6 7.46875 6 8 C 6 8.53125 6.210938 9.039062 6.585938 9.414062 C 6.960938 9.789062 7.46875 10 8 10 C 8.53125 10 9.039062 9.789062 9.414062 9.414062 C 9.789062 9.039062 10 8.53125 10 8 C 10 7.46875 9.789062 6.960938 9.414062 6.585938 C 9.039062 6.210938 8.53125 6 8 6 Z M 8 6 "/>
</g>
</svg>
