<svg width="1911" height="378" viewBox="0 0 1911 378" fill="none" xmlns="http://www.w3.org/2000/svg">
<path fill-rule="evenodd" clip-rule="evenodd" d="M324 103.405C324 142.289 291.846 173.81 252.181 173.81H252.178V153.927H252.181C280.644 153.927 303.719 131.308 303.719 103.405C303.719 75.5026 280.644 52.8831 252.181 52.8831C223.718 52.8831 200.644 75.5026 200.644 103.405H200.639V271.596L200.64 271.594C200.64 310.478 168.485 342 128.82 342C89.1549 342 57 310.478 57 271.596C57 232.712 89.1549 201.19 128.82 201.19H128.822V221.073H128.819C100.356 221.073 77.282 243.692 77.282 271.596C77.282 299.498 100.356 322.117 128.819 322.117C157.283 322.117 180.357 299.498 180.357 271.596V103.405H180.361C180.361 64.5214 212.516 33 252.181 33C291.846 33 324 64.5214 324 103.405Z" fill="#111827"/>
<path d="M488.437 224.814C488.437 231.465 487.65 238.457 486.077 245.791C484.678 253.125 481.969 259.945 477.945 266.256C473.923 272.567 468.239 277.767 460.894 281.86C453.549 285.953 444.105 288 432.563 288C417.524 288 405.457 284.334 396.363 277C387.444 269.666 381.324 260.032 378 248.093L408.429 239.651C410.003 245.619 412.889 250.395 417.086 253.977C421.283 257.387 426.267 259.093 432.038 259.093C436.76 259.093 440.608 258.241 443.58 256.535C446.728 254.829 449.089 252.442 450.663 249.372C452.413 246.131 453.638 242.381 454.336 238.116C455.036 233.683 455.385 228.907 455.385 223.791V102.279H488.437V224.814ZM518.88 221.488C518.88 211.767 520.63 202.985 524.126 195.14C527.799 187.125 532.696 180.302 538.816 174.674C544.936 169.047 552.195 164.698 560.589 161.628C568.983 158.558 577.902 157.023 587.346 157.023C596.789 157.023 605.708 158.558 614.103 161.628C622.497 164.698 629.755 169.047 635.875 174.674C641.995 180.302 646.806 187.125 650.303 195.14C653.976 202.985 655.812 211.767 655.812 221.488C655.812 231.209 653.976 240.078 650.303 248.093C646.806 256.108 641.995 263.015 635.875 268.814C629.755 274.442 622.497 278.875 614.103 282.116C605.708 285.357 596.789 286.977 587.346 286.977C577.902 286.977 568.983 285.357 560.589 282.116C552.195 278.875 544.936 274.442 538.816 268.814C532.696 263.015 527.799 256.108 524.126 248.093C520.63 240.078 518.88 231.209 518.88 221.488ZM550.883 221.488C550.883 226.264 551.583 231.038 552.982 235.814C554.556 240.59 556.83 244.852 559.802 248.605C562.774 252.357 566.536 255.427 571.082 257.814C575.628 260.201 581.05 261.395 587.346 261.395C593.642 261.395 599.064 260.201 603.61 257.814C608.156 255.427 611.917 252.357 614.89 248.605C617.862 244.852 620.049 240.59 621.448 235.814C623.022 231.038 623.808 226.264 623.808 221.488C623.808 216.712 623.022 212.023 621.448 207.419C620.049 202.643 617.862 198.381 614.89 194.628C611.917 190.875 608.156 187.892 603.61 185.674C599.064 183.288 593.642 182.093 587.346 182.093C581.05 182.093 575.628 183.288 571.082 185.674C566.536 187.892 562.774 190.875 559.802 194.628C556.83 198.381 554.556 202.643 552.982 207.419C551.583 212.023 550.883 216.712 550.883 221.488ZM718.336 90V176.209H719.123C720.697 174.163 722.709 172.032 725.156 169.814C727.604 167.596 730.489 165.55 733.813 163.674C737.31 161.799 741.334 160.264 745.88 159.07C750.426 157.706 755.586 157.023 761.357 157.023C770.276 157.023 778.494 158.73 786.015 162.14C793.536 165.381 800.005 169.898 805.427 175.698C810.849 181.497 815.046 188.317 818.018 196.163C820.99 204.009 822.478 212.45 822.478 221.488C822.478 230.526 820.99 239.055 818.018 247.07C815.219 254.916 811.111 261.823 805.689 267.791C800.443 273.59 793.971 278.279 786.277 281.86C778.757 285.27 770.189 286.977 760.57 286.977C751.651 286.977 743.257 285.102 735.387 281.349C727.693 277.596 721.66 272.14 717.287 264.977H716.762V283.395H686.858V90H718.336ZM790.475 221.488C790.475 216.712 789.688 212.023 788.114 207.419C786.715 202.643 784.528 198.381 781.556 194.628C778.583 190.875 774.822 187.892 770.276 185.674C765.73 183.288 760.394 182.093 754.274 182.093C748.503 182.093 743.343 183.288 738.797 185.674C734.251 188.061 730.316 191.131 726.993 194.884C723.845 198.636 721.397 202.898 719.648 207.674C718.074 212.45 717.287 217.224 717.287 222C717.287 226.776 718.074 231.55 719.648 236.326C721.397 240.93 723.845 245.108 726.993 248.86C730.316 252.613 734.251 255.683 738.797 258.07C743.343 260.288 748.503 261.395 754.274 261.395C760.394 261.395 765.73 260.201 770.276 257.814C774.822 255.427 778.583 252.357 781.556 248.605C784.528 244.852 786.715 240.59 788.114 235.814C789.688 231.038 790.475 226.264 790.475 221.488ZM920.001 102.279H980.597C991.263 102.279 1000.88 103.217 1009.45 105.093C1018.02 106.968 1025.37 110.038 1031.49 114.302C1037.61 118.567 1042.33 124.023 1045.65 130.674C1048.97 137.326 1050.64 145.34 1050.64 154.721C1050.64 164.782 1048.71 173.224 1044.87 180.047C1041.02 186.869 1035.77 192.41 1029.13 196.674C1022.66 200.767 1015.05 203.753 1006.3 205.628C997.559 207.503 988.291 208.442 978.499 208.442H953.054V283.395H920.001V102.279ZM976.138 181.326C981.557 181.326 986.717 180.985 991.615 180.302C996.51 179.45 1000.88 178.084 1004.73 176.209C1008.58 174.163 1011.64 171.433 1013.91 168.023C1016.18 164.613 1017.32 160.177 1017.32 154.721C1017.32 149.433 1016.18 145.171 1013.91 141.93C1011.64 138.52 1008.58 135.875 1004.73 134C1001.06 132.125 996.772 130.93 991.877 130.419C987.155 129.736 982.258 129.395 977.187 129.395H953.054V181.326H976.138ZM1066.49 160.605H1096.66V181.07H1097.19C1100.68 173.907 1105.58 168.108 1111.88 163.674C1118.17 159.241 1125.52 157.023 1133.91 157.023C1135.14 157.023 1136.45 157.108 1137.85 157.279C1139.24 157.279 1140.47 157.45 1141.52 157.791V185.93C1139.42 185.419 1137.58 185.078 1136.01 184.907C1134.61 184.736 1133.21 184.651 1131.81 184.651C1124.64 184.651 1118.87 185.93 1114.5 188.488C1110.13 191.046 1106.72 194.116 1104.27 197.698C1101.82 201.279 1100.16 204.945 1099.28 208.698C1098.41 212.45 1097.97 215.433 1097.97 217.651V283.395H1066.49V160.605ZM1150.09 221.488C1150.09 211.767 1151.84 202.985 1155.34 195.14C1159.01 187.125 1163.91 180.302 1170.03 174.674C1176.15 169.047 1183.41 164.698 1191.8 161.628C1200.19 158.558 1209.11 157.023 1218.56 157.023C1228 157.023 1236.92 158.558 1245.31 161.628C1253.71 164.698 1260.97 169.047 1267.09 174.674C1273.21 180.302 1278.02 187.125 1281.51 195.14C1285.19 202.985 1287.02 211.767 1287.02 221.488C1287.02 231.209 1285.19 240.078 1281.51 248.093C1278.02 256.108 1273.21 263.015 1267.09 268.814C1260.97 274.442 1253.71 278.875 1245.31 282.116C1236.92 285.357 1228 286.977 1218.56 286.977C1209.11 286.977 1200.19 285.357 1191.8 282.116C1183.41 278.875 1176.15 274.442 1170.03 268.814C1163.91 263.015 1159.01 256.108 1155.34 248.093C1151.84 240.078 1150.09 231.209 1150.09 221.488ZM1182.09 221.488C1182.09 226.264 1182.79 231.038 1184.19 235.814C1185.77 240.59 1188.04 244.852 1191.01 248.605C1193.99 252.357 1197.75 255.427 1202.29 257.814C1206.84 260.201 1212.26 261.395 1218.56 261.395C1224.85 261.395 1230.28 260.201 1234.82 257.814C1239.37 255.427 1243.13 252.357 1246.1 248.605C1249.07 244.852 1251.26 240.59 1252.66 235.814C1254.23 231.038 1255.02 226.264 1255.02 221.488C1255.02 216.712 1254.23 212.023 1252.66 207.419C1251.26 202.643 1249.07 198.381 1246.1 194.628C1243.13 190.875 1239.37 187.892 1234.82 185.674C1230.28 183.288 1224.85 182.093 1218.56 182.093C1212.26 182.093 1206.84 183.288 1202.29 185.674C1197.75 187.892 1193.99 190.875 1191.01 194.628C1188.04 198.381 1185.77 202.643 1184.19 207.419C1182.79 212.023 1182.09 216.712 1182.09 221.488ZM1299.44 185.163V160.605H1321.48V125.047H1352.43V160.605H1383.91V185.163H1352.43V242.209C1352.43 247.666 1353.4 252.186 1355.32 255.767C1357.42 259.349 1361.96 261.14 1368.96 261.14C1371.06 261.14 1373.33 260.968 1375.78 260.628C1378.23 260.116 1380.41 259.433 1382.34 258.581L1383.39 282.628C1380.59 283.651 1377.27 284.419 1373.42 284.93C1369.57 285.613 1365.9 285.953 1362.4 285.953C1354.01 285.953 1347.19 284.846 1341.94 282.628C1336.69 280.241 1332.5 277.084 1329.35 273.163C1326.38 269.07 1324.28 264.465 1323.05 259.349C1322 254.061 1321.48 248.433 1321.48 242.465V185.163H1299.44ZM1399.35 221.488C1399.35 211.767 1401.1 202.985 1404.59 195.14C1408.27 187.125 1413.16 180.302 1419.28 174.674C1425.41 169.047 1432.66 164.698 1441.06 161.628C1449.45 158.558 1458.37 157.023 1467.81 157.023C1477.26 157.023 1486.18 158.558 1494.57 161.628C1502.96 164.698 1510.22 169.047 1516.34 174.674C1522.46 180.302 1527.27 187.125 1530.77 195.14C1534.44 202.985 1536.28 211.767 1536.28 221.488C1536.28 231.209 1534.44 240.078 1530.77 248.093C1527.27 256.108 1522.46 263.015 1516.34 268.814C1510.22 274.442 1502.96 278.875 1494.57 282.116C1486.18 285.357 1477.26 286.977 1467.81 286.977C1458.37 286.977 1449.45 285.357 1441.06 282.116C1432.66 278.875 1425.41 274.442 1419.28 268.814C1413.16 263.015 1408.27 256.108 1404.59 248.093C1401.1 240.078 1399.35 231.209 1399.35 221.488ZM1431.35 221.488C1431.35 226.264 1432.05 231.038 1433.45 235.814C1435.02 240.59 1437.3 244.852 1440.27 248.605C1443.24 252.357 1447 255.427 1451.55 257.814C1456.1 260.201 1461.52 261.395 1467.81 261.395C1474.11 261.395 1479.53 260.201 1484.08 257.814C1488.63 255.427 1492.38 252.357 1495.36 248.605C1498.33 244.852 1500.52 240.59 1501.91 235.814C1503.49 231.038 1504.28 226.264 1504.28 221.488C1504.28 216.712 1503.49 212.023 1501.91 207.419C1500.52 202.643 1498.33 198.381 1495.36 194.628C1492.38 190.875 1488.63 187.892 1484.08 185.674C1479.53 183.288 1474.11 182.093 1467.81 182.093C1461.52 182.093 1456.1 183.288 1451.55 185.674C1447 187.892 1443.24 190.875 1440.27 194.628C1437.3 198.381 1435.02 202.643 1433.45 207.419C1432.05 212.023 1431.35 216.712 1431.35 221.488ZM1652.84 194.628C1650.39 191.218 1646.72 188.404 1641.83 186.186C1636.93 183.799 1631.94 182.605 1626.87 182.605C1621.1 182.605 1616.03 183.799 1611.66 186.186C1607.29 188.404 1603.61 191.387 1600.64 195.14C1597.84 198.892 1595.74 203.154 1594.35 207.93C1592.95 212.535 1592.25 217.224 1592.25 222C1592.25 226.776 1592.95 231.55 1594.35 236.326C1595.92 240.93 1598.19 245.108 1601.17 248.86C1604.14 252.613 1607.81 255.683 1612.18 258.07C1616.73 260.288 1621.98 261.395 1627.92 261.395C1632.82 261.395 1637.72 260.457 1642.61 258.581C1647.51 256.706 1651.44 253.977 1654.42 250.395L1674.09 269.837C1668.85 275.294 1662.11 279.558 1653.89 282.628C1645.85 285.526 1637.1 286.977 1627.66 286.977C1618.39 286.977 1609.56 285.526 1601.17 282.628C1592.95 279.73 1585.69 275.465 1579.39 269.837C1573.27 264.209 1568.38 257.387 1564.7 249.372C1561.2 241.357 1559.46 232.233 1559.46 222C1559.46 212.108 1561.2 203.154 1564.7 195.14C1568.38 187.125 1573.27 180.302 1579.39 174.674C1585.51 169.047 1592.6 164.698 1600.64 161.628C1608.86 158.558 1617.6 157.023 1626.87 157.023C1636.14 157.023 1645.06 158.73 1653.63 162.14C1662.37 165.55 1669.28 170.241 1674.35 176.209L1652.84 194.628ZM1687.54 221.488C1687.54 211.767 1689.29 202.985 1692.79 195.14C1696.46 187.125 1701.36 180.302 1707.48 174.674C1713.6 169.047 1720.86 164.698 1729.25 161.628C1737.65 158.558 1746.57 157.023 1756.01 157.023C1765.45 157.023 1774.37 158.558 1782.77 161.628C1791.16 164.698 1798.42 169.047 1804.54 174.674C1810.66 180.302 1815.47 187.125 1818.97 195.14C1822.64 202.985 1824.48 211.767 1824.48 221.488C1824.48 231.209 1822.64 240.078 1818.97 248.093C1815.47 256.108 1810.66 263.015 1804.54 268.814C1798.42 274.442 1791.16 278.875 1782.77 282.116C1774.37 285.357 1765.45 286.977 1756.01 286.977C1746.57 286.977 1737.65 285.357 1729.25 282.116C1720.86 278.875 1713.6 274.442 1707.48 268.814C1701.36 263.015 1696.46 256.108 1692.79 248.093C1689.29 240.078 1687.54 231.209 1687.54 221.488ZM1719.55 221.488C1719.55 226.264 1720.24 231.038 1721.65 235.814C1723.22 240.59 1725.49 244.852 1728.47 248.605C1731.44 252.357 1735.2 255.427 1739.75 257.814C1744.29 260.201 1749.71 261.395 1756.01 261.395C1762.31 261.395 1767.72 260.201 1772.27 257.814C1776.82 255.427 1780.58 252.357 1783.55 248.605C1786.53 244.852 1788.71 240.59 1790.11 235.814C1791.69 231.038 1792.47 226.264 1792.47 221.488C1792.47 216.712 1791.69 212.023 1790.11 207.419C1788.71 202.643 1786.53 198.381 1783.55 194.628C1780.58 190.875 1776.82 187.892 1772.27 185.674C1767.72 183.288 1762.31 182.093 1756.01 182.093C1749.71 182.093 1744.29 183.288 1739.75 185.674C1735.2 187.892 1731.44 190.875 1728.47 194.628C1725.49 198.381 1723.22 202.643 1721.65 207.419C1720.24 212.023 1719.55 216.712 1719.55 221.488ZM1855.52 90H1887V283.395H1855.52V90Z" fill="#111827"/>
</svg>
