<svg xmlns="http://www.w3.org/2000/svg" xmlns:xlink="http://www.w3.org/1999/xlink" id="Layer_1" x="0px" y="0px" viewBox="0 0 1400 1200" style="enable-background:new 0 0 1400 1200;" xml:space="preserve"> <style type="text/css"> .st0{fill:#7A0200;} .st1{fill:#922200;} .st2{fill:#FFCE8A;} .st3{fill:#FF7E3E;} .st4{fill:none;} </style> <g> <g> <path class="st0" d="M46,806.3l860.5-496.8c25.6-14.8,64.4-16.4,86.6-3.6l359,207.2c22.2,12.8,19.4,35.2-6.2,50l-860.5,496.8 c-25.6,14.8-64.4,16.4-86.6,3.6l-359-207.2C17.6,843.5,20.4,821.1,46,806.3z"></path> <g> <path class="st1" d="M1363.8,427.4v61.7l-0.1,0c-0.7,9.3-7.9,19-21.1,26.7l-860.5,496.8c-25.6,14.8-64.4,16.4-86.6,3.6L36.6,809 c-10.1-5.8-15-13.6-15-21.7c0-0.2,0-0.5,0-0.7v-58.7c0.3,7.8,5.2,15.3,15,20.9l359,207.3c22.2,12.8,60.9,11.2,86.6-3.6 l860.5-496.8C1356.6,447.6,1363.8,437.2,1363.8,427.4z"></path> <path class="st2" d="M42.8,698.9L903.3,202c25.6-14.8,64.4-16.4,86.6-3.6l359,207.2c22.2,12.8,19.4,35.2-6.2,50L482.1,952.5 c-25.6,14.8-64.4,16.4-86.6,3.6l-359-207.2C14.4,736,17.2,713.6,42.8,698.9z"></path> <path class="st3" d="M436.8,956.8c-13.2,0-25.6-2.9-34.8-8.2L47.3,743.7c-8.7-5-13.5-11.6-13.5-18.5c0-7,5-13.8,13.9-19 l867.5-500.9c9.5-5.5,22.1-8.5,35.5-8.5c13.2,0,25.5,2.9,34.7,8.2l82.3,47.5c2.2,1.2,3.4,2.8,3.4,4.3c0,1.5-1.3,3.1-3.5,4.4 l-7.7,4.4c-3,1.7-4.7,4.2-4.7,6.9c0,2.6,1.6,5,4.4,6.7l151.9,87.7c2.4,1.4,5.7,2.2,9,2.2c3.5,0,6.8-0.8,9.4-2.3l8.1-4.7 c2.5-1.5,6.1-2.3,9.8-2.3c3.6,0,7.1,0.8,9.6,2.3l82.6,47.7c8.8,5.1,13.6,11.6,13.6,18.6c0,7.1-5,13.8-14,19L472.2,948.4 C462.8,953.8,450.2,956.8,436.8,956.8z"></path> </g> </g> <g> <path class="st1" d="M1010.6,381.1v105.5c0,18.4-12.1,36.7-36.4,50.8c-48.6,28-127.3,28-175.9,0c-24.3-14-36.4-32.4-36.4-50.8 V381.1H1010.6z"></path> <polygon class="st2" points="890.6,488.9 703.7,381.1 890.6,273.2 1077.4,381.1 "></polygon> <path class="st1" d="M1137.6,563.3l-144.3,83.3l-174.9-99.9c48.2,18.2,113.5,15,155.8-9.4c22.7-13.1,34.8-30,36.3-47.2 L1137.6,563.3z"></path> <path class="st3" d="M800.5,468.3l1.3,19.3l-12.4-7.1l1.3-17.8l2.8,1.6v-31.4l0.9-0.5l95.2-52.9c0.9-0.5,2-0.2,2.5,0.7 c0.5,0.9,0.2,2-0.7,2.5L797.2,435v31.4L800.5,468.3z"></path> </g> <g> <polygon class="st1" points="825,745.1 587.2,882.4 483.5,814 721.9,676.4 "></polygon> <g> <polygon class="st2" points="557.2,574.8 318.8,712.4 483.5,807.5 721.9,669.9 "></polygon> <polygon class="st2" points="557.2,543.8 318.8,681.4 483.5,776.5 721.9,638.9 "></polygon> <polygon class="st3" points="483.5,782.9 483.5,801.5 323.6,710 323.6,690.6 "></polygon> <g> <polygon class="st4" points="323.6,715.2 483.5,807.5 483.5,782.9 323.6,690.6 "></polygon> <polygon class="st1" points="323.6,715.2 323.6,690.6 483.5,782.9 483.5,776.5 318.8,681.4 318.8,684.5 318.8,684.8 318.8,687.8 318.8,712.4 318.8,715.5 318.8,715.7 318.8,718.9 483.5,814 483.5,807.5 "></polygon> </g> <polygon class="st3" points="713.2,650.3 713.2,670.1 483.5,801.5 483.5,782.9 "></polygon> <polygon class="st1" points="483.5,782.9 721.9,645.3 721.9,642.3 721.9,641.9 721.9,638.9 483.5,776.5 483.5,776.5 483.5,782.9 "></polygon> <polygon class="st1" points="721.9,676.4 721.9,673.2 721.9,673 721.9,669.9 483.5,807.5 483.5,807.5 483.5,814 483.5,814 "></polygon> </g> <g> <polygon class="st2" points="557.2,531.8 318.8,669.4 483.5,764.5 721.9,626.9 "></polygon> <polygon class="st2" points="557.2,500.8 318.8,638.4 483.5,733.5 721.9,595.9 "></polygon> <polygon class="st3" points="483.5,739.9 483.5,758.5 323.6,667 323.6,647.6 "></polygon> <g> <polygon class="st4" points="323.6,672.2 483.5,764.5 483.5,739.9 323.6,647.6 "></polygon> <polygon class="st1" points="323.6,672.2 323.6,647.6 483.5,739.9 483.5,733.5 318.8,638.4 318.8,641.5 318.8,641.8 318.8,644.8 318.8,669.4 318.8,672.5 318.8,672.7 318.8,675.9 483.5,771 483.5,764.5 "></polygon> </g> <polygon class="st3" points="713.2,607.3 713.2,627.1 483.5,758.5 483.5,739.9 "></polygon> <polygon class="st1" points="483.5,739.9 721.9,602.3 721.9,599.3 721.9,598.9 721.9,595.9 483.5,733.5 483.5,733.5 483.5,739.9 "></polygon> <polygon class="st1" points="721.9,633.4 721.9,630.2 721.9,630 721.9,626.9 483.5,764.5 483.5,764.5 483.5,771 483.5,771 "></polygon> </g> <g> <polygon class="st2" points="557.2,489 318.8,626.6 483.5,721.7 721.9,584.1 "></polygon> <polygon class="st2" points="557.2,458 318.8,595.6 483.5,690.7 721.9,553.1 "></polygon> <polygon class="st3" points="483.5,697.1 483.5,715.7 323.6,624.2 323.6,604.8 "></polygon> <g> <polygon class="st4" points="323.6,629.4 483.5,721.7 483.5,697.1 323.6,604.8 "></polygon> <polygon class="st1" points="323.6,629.4 323.6,604.8 483.5,697.1 483.5,690.7 318.8,595.6 318.8,598.7 318.8,599 318.8,602 318.8,626.6 318.8,629.7 318.8,629.9 318.8,633.1 483.5,728.2 483.5,721.7 "></polygon> </g> <polygon class="st3" points="713.2,564.5 713.2,584.3 483.5,715.7 483.5,697.1 "></polygon> <polygon class="st1" points="483.5,697.1 721.9,559.5 721.9,556.5 721.9,556.1 721.9,553.1 483.5,690.7 483.5,690.7 483.5,697.1 "></polygon> <polygon class="st1" points="721.9,590.6 721.9,587.4 721.9,587.2 721.9,584.1 483.5,721.7 483.5,721.7 483.5,728.2 483.5,728.2 "></polygon> </g> </g> </g> </svg>