<?xml version="1.0" encoding="UTF-8"?> <svg xmlns="http://www.w3.org/2000/svg" width="130" height="30" viewBox="0 0 130 30" fill="none"><path d="M19.269 12.0729C19.269 8.21852 17.9212 6.32477 16.1295 5.02845L20.8099 0H17.59L1.58926 17.1244L1.54327 17.9248C1.54327 21.7815 2.89104 23.6752 4.6804 24.9692L0 30H3.21993L19.2207 12.8733L19.269 12.0729ZM6.19146 23.3477C4.76779 22.3581 3.89151 21.0272 3.81791 18.257L14.6277 6.65231C16.0513 7.64186 16.9276 8.97278 17.0012 11.743L6.19146 23.3477Z" fill="#FF7E3E"></path><path d="M12.3528 28.9413L13.5994 26.9022C15.4393 26.0211 17.8014 24.2934 18.795 21.0272C19.11 19.9962 19.2687 17.2259 19.2687 15.9526V14.2873L16.9688 16.7715C16.9688 16.843 16.955 17.0022 16.9481 17.076C16.8699 17.9986 16.6606 20.4275 16.3616 21.1103C15.6118 22.8356 14.2089 24.2196 12.3068 25.0869C12.1027 25.1769 11.9309 25.3274 11.8146 25.5182L10.4185 27.8018L8.96957 25.4398L7.38721 27.1559L8.47968 28.9413C8.68798 29.266 8.97422 29.5331 9.31216 29.718C9.65011 29.903 10.0289 29.9999 10.4139 29.9999C10.7989 29.9999 11.1778 29.903 11.5157 29.718C11.8537 29.5331 12.1399 29.266 12.3482 28.9413H12.3528Z" fill="#FF7E3E"></path><path d="M8.45913 1.05873L7.21256 3.09779C5.3726 3.97892 3.00826 5.70659 2.01468 8.97047C1.69958 10.0038 1.55469 12.7741 1.55469 14.045V15.7243L3.85464 13.2377C3.85464 13.1685 3.86844 13.0071 3.87764 12.9356C3.95583 12.0129 4.16513 9.58403 4.46182 8.89896C5.19781 7.15054 6.60307 5.7804 8.50973 4.91311C8.71246 4.8209 8.88363 4.67088 9.00192 4.48177L10.398 2.19821L11.8401 4.55789L13.4224 2.84406L12.3253 1.05873C12.1169 0.734507 11.8308 0.467877 11.4931 0.283242C11.1554 0.098606 10.7769 0.00186157 10.3922 0.00186157C10.0076 0.00186157 9.62911 0.098606 9.2914 0.283242C8.95368 0.467877 8.66753 0.734507 8.45913 1.05873Z" fill="#FF7E3E"></path><path d="M30.3339 6.43781H28.2915V20.3468H35.8261V18.423H30.3339V6.43781Z" fill="#171E28"></path><path d="M38.0847 6.25789C37.9429 6.25186 37.8013 6.27508 37.6688 6.32611C37.5363 6.37714 37.4157 6.4549 37.3144 6.55458C37.213 6.65425 37.1332 6.77372 37.0797 6.9056C37.0263 7.03747 37.0004 7.17894 37.0037 7.32125C37.0008 7.46408 37.0269 7.60601 37.0803 7.73845C37.1337 7.87089 37.2134 7.99109 37.3144 8.09178C37.4154 8.19247 37.5358 8.27156 37.6682 8.32427C37.8006 8.37698 37.9423 8.40222 38.0847 8.39845C38.2261 8.40236 38.3669 8.37706 38.4982 8.32413C38.6295 8.2712 38.7486 8.19176 38.848 8.09075C38.9475 7.98973 39.0251 7.8693 39.0762 7.73693C39.1273 7.60456 39.1507 7.46307 39.1449 7.32125C39.1498 7.18031 39.1256 7.03988 39.074 6.90868C39.0225 6.77749 38.9445 6.65833 38.8451 6.55861C38.7457 6.45889 38.6269 6.38073 38.496 6.329C38.3652 6.27727 38.2252 6.25307 38.0847 6.25789Z" fill="#171E28"></path><path d="M39.0761 10.509H37.0752V20.3468H39.0761V10.509Z" fill="#171E28"></path><path d="M50.6427 10.3637C49.5343 10.3858 48.4485 10.683 47.4826 11.2287C46.8823 10.6658 46.1992 10.3568 45.1021 10.3568C44.3753 10.3568 43.3657 10.6728 42.6688 10.9426L42.6573 10.5067H40.9116V20.3468H42.9034V12.5042C43.5603 12.2667 44.2521 12.1405 44.9503 12.1305C46.4476 12.1305 46.3809 12.9771 46.3809 13.6068V20.3468H48.3704V14.1189C48.3722 13.64 48.343 13.1615 48.283 12.6864C49.3156 12.2021 49.8331 12.1352 50.3782 12.1352C51.4569 12.1352 51.7582 12.7649 51.7582 14.0381V20.3468H53.7499V13.9343C53.7453 11.7915 52.6851 10.3637 50.6427 10.3637Z" fill="#171E28"></path><path d="M62.9866 16.4094V14.1027C62.9866 11.75 61.5515 10.3429 59.1457 10.3429C56.6503 10.3429 55.1001 11.8007 55.1001 14.1442V17.4427C55.1001 19.6087 56.5031 20.5521 58.8536 20.5521C60.1223 20.5883 61.364 20.1805 62.3656 19.3987L61.1559 18.1855C60.4902 18.5997 59.7198 18.8135 58.9364 18.8013C57.2644 18.8013 57.0712 17.8925 57.0712 17.2074V16.4094H62.9866ZM57.0988 14.1027C57.0988 12.3843 58.366 12.1283 59.1227 12.1283C60.0013 12.1283 61.0501 12.4627 61.0501 14.0635V14.7624H57.0988V14.1027Z" fill="#171E28"></path><path d="M73.3157 20.3514L71.7724 15.7151H67.0874L65.5304 20.3514H64.2378L68.8377 6.8576H70.0199L74.6336 20.3514H73.3157ZM71.4504 14.5848L69.4288 8.55067L67.4071 14.5848H71.4504Z" fill="#171E28"></path><path d="M74.9785 14.4441C74.9785 11.863 76.508 10.5228 78.7297 10.5228C79.267 10.5113 79.8009 10.6115 80.2977 10.8172C80.7945 11.0228 81.2434 11.3294 81.6162 11.7177L80.7284 12.2067C80.1518 11.7723 79.4509 11.5361 78.7297 11.5331C77.2785 11.5331 76.186 12.4558 76.186 14.4441V16.6077C76.186 18.603 77.267 19.5118 78.7297 19.5118C79.4496 19.5121 80.1504 19.28 80.7284 18.8498L81.6254 19.3388C81.2517 19.7281 80.8013 20.0351 80.3027 20.24C79.8041 20.445 79.2684 20.5434 78.7297 20.529C76.508 20.529 74.9785 19.1934 74.9785 16.6077V14.4441Z" fill="#171E28"></path><path d="M83.1248 11.4547C83.755 10.9311 84.698 10.532 86.0895 10.532C89.7303 10.532 90.1305 12.5803 90.1305 14.5779V20.3906H89.1553L89.13 19.8923C88.287 20.3416 87.3454 20.5723 86.3908 20.5636C84.3208 20.5059 82.5269 19.7101 82.5269 17.2143C82.5269 14.5986 84.5255 13.9528 86.6484 13.9528C87.4089 13.9671 88.1678 14.0287 88.9207 14.1373C88.8931 12.8225 88.5159 11.5539 85.9745 11.5539C85.1965 11.527 84.4268 11.7222 83.755 12.1167L83.1248 11.4547ZM88.9207 15.023C88.222 14.9217 87.5175 14.8654 86.8117 14.8547C85.0982 14.8547 83.6561 15.316 83.6561 17.2143C83.6561 19.0089 84.9625 19.5717 86.5702 19.5717C87.3869 19.5719 88.1922 19.3791 88.9207 19.0089V15.023Z" fill="#171E28"></path><path d="M97.964 20.3514L97.9387 19.8508C97.0943 20.2947 96.1527 20.5199 95.1994 20.5059C93.3112 20.5059 91.4873 19.6778 91.4873 17.2582V13.8398C91.4873 11.3025 93.2882 10.5275 95.0752 10.5275C95.9852 10.5422 96.8845 10.7268 97.7271 11.0718V6.8576H98.9368V20.3514H97.964ZM97.734 12.0106C96.9541 11.6846 96.1179 11.5153 95.273 11.5124C93.8172 11.5124 92.704 12.1098 92.704 13.9159V17.2743C92.704 18.8498 93.854 19.5302 95.3627 19.5302C96.1838 19.5334 96.9947 19.3488 97.734 18.9905V12.0106Z" fill="#171E28"></path><path d="M100.386 14.0174C100.386 11.7915 101.828 10.5228 104.123 10.5228C106.419 10.5228 107.649 11.8676 107.649 13.9828V15.9365H101.566V17.5304C101.566 18.9835 102.486 19.6063 103.907 19.6063C104.84 19.6216 105.755 19.3521 106.531 18.8336L107.196 19.4449C106.24 20.21 105.044 20.6105 103.822 20.5751C101.589 20.5751 100.386 19.3526 100.386 17.4312V14.0174ZM106.504 13.9343C106.504 12.089 105.271 11.5147 104.098 11.5147C102.828 11.5147 101.596 12.1444 101.596 13.9758V15.0876H106.504V13.9343Z" fill="#171E28"></path><path d="M109.993 11.1825C110.805 10.7607 111.706 10.5378 112.621 10.532C113.739 10.532 114.733 10.8873 115.25 11.5516C116.262 10.9449 117.15 10.532 118.256 10.532C119.963 10.532 121.345 11.6415 121.345 13.8028V20.3514H120.145V13.8928C120.145 12.2528 119.333 11.517 118.075 11.517C117.385 11.517 117.014 11.6092 115.644 12.2689C115.811 12.6103 115.821 13.4545 115.821 13.9735V20.3514H114.62V13.4592C114.62 12.0544 113.725 11.5262 112.481 11.5262C111.691 11.53 110.912 11.7097 110.2 12.0521V20.356H108.999V10.6935H109.967L109.993 11.1825Z" fill="#171E28"></path><path d="M130 21.0457C130 23.2047 128.604 24.1688 126.732 24.1688C125.529 24.1661 124.353 23.8179 123.341 23.1654L123.838 22.4527C124.624 22.9314 125.523 23.191 126.442 23.2047C127.842 23.2047 128.772 22.6603 128.79 21.1425V19.8162C127.942 20.1787 127.028 20.361 126.106 20.3514C124.202 20.3514 122.55 19.5256 122.55 17.0944V10.6935H123.76V17.0206C123.76 18.8267 124.873 19.4241 126.329 19.4241C127.176 19.4219 128.015 19.2526 128.797 18.9259V10.6935H130.007L130 21.0457Z" fill="#171E28"></path></svg> 