<svg width="16" height="16" viewBox="0 0 16 16" fill="none" xmlns="http://www.w3.org/2000/svg">
<path fillRule="evenodd" clipRule="evenodd" d="M7.33334 4.33333V5C7.33334 5.18408 7.18409 5.33333 7.00001 5.33333H5.33334C3.86061 5.33333 2.66668 6.52722 2.66668 8C2.66668 9.47278 3.86061 10.6667 5.33334 10.6667H7.00001C7.18409 10.6667 7.33334 10.8159 7.33334 11V11.6667C7.33334 11.8507 7.18409 12 7.00001 12H5.33334C3.1242 12 1.33334 10.2091 1.33334 8C1.33334 5.79085 3.1242 4 5.33334 4H7.00001C7.18409 4 7.33334 4.14925 7.33334 4.33333ZM10.6667 4C12.8758 4 14.6667 5.79085 14.6667 8C14.6667 10.2091 12.8758 12 10.6667 12H9.00001C8.81593 12 8.66668 11.8507 8.66668 11.6667V11C8.66668 10.8159 8.81593 10.6667 9.00001 10.6667H10.6667C12.1394 10.6667 13.3333 9.47278 13.3333 8C13.3333 6.52722 12.1394 5.33333 10.6667 5.33333H9.00001C8.81593 5.33333 8.66668 5.18408 8.66668 5V4.33333C8.66668 4.14925 8.81593 4 9.00001 4H10.6667ZM5.66668 7.33333C5.48259 7.33333 5.33334 7.48258 5.33334 7.66667V8.33333C5.33334 8.51742 5.48259 8.66667 5.66668 8.66667H10.3333C10.5174 8.66667 10.6667 8.51742 10.6667 8.33333V7.66667C10.6667 7.48258 10.5174 7.33333 10.3333 7.33333H5.66668Z" fill="#1F2534"/>
</svg>
