<svg width="16" height="16" viewBox="0 0 16 16" fill="none" xmlns="http://www.w3.org/2000/svg">
<g clip-path="url(#clip0_117_1730)">
<path d="M14.816 0.000101554H1.18071C0.540651 -0.00712717 0.00780129 0.51334 0 1.1534V14.8453C0.00751501 15.4857 0.540293 16.0068 1.18071 15.9999H14.816C15.458 16.008 15.9927 15.487 16.0012 14.8453V1.15247C15.9927 0.511049 15.4573 -0.00834388 14.816 0.000101554Z" fill="white"/>
<path d="M13.6341 13.633H11.2631V9.91998C11.2631 9.03457 11.2473 7.89479 10.03 7.89479C8.79514 7.89479 8.60618 8.85943 8.60618 9.85549V13.6327H6.23531V5.99729H8.51136V7.04073H8.54327C9.0067 6.24836 9.87157 5.77334 10.789 5.80741C13.192 5.80741 13.6351 7.388 13.6351 9.44432L13.6341 13.633ZM3.56011 4.95356C2.80532 4.95356 2.18393 4.33254 2.18393 3.57775C2.18393 2.82295 2.80503 2.20186 3.55982 2.20186C4.31454 2.20186 4.93557 2.82281 4.93571 3.57746C4.93571 4.33211 4.31476 4.95349 3.56011 4.95356ZM4.74555 13.633H2.37216V5.99729H4.74555V13.633ZM14.816 0.000101554H1.18071C0.540651 -0.00712717 0.00780129 0.51334 0 1.1534V14.8453C0.00751501 15.4857 0.540293 16.0068 1.18071 15.9999H14.816C15.458 16.008 15.9927 15.487 16.0012 14.8453V1.15247C15.9927 0.511049 15.4573 -0.00834388 14.816 0.000101554Z" fill-opacity="0.8"/>
</g>
<defs>
<clipPath id="clip0_117_1730">
<rect width="16" height="16" fill="white"/>
</clipPath>
</defs>
</svg>
