<?xml version="1.0" encoding="UTF-8"?>
<svg data-bbox="0 0 630.5 114.259" viewBox="0 0 630.5 114.3" xmlns="http://www.w3.org/2000/svg" data-type="color">
    <g>
        <path d="M169 2.5h-40.4v2.6c3.3 3.6 12.7 2.2 12.7 9.7v83.5c0 .6 0 1.3-.1 1.9-1.3 9.7-12.5 9.3-12.5 9.3v2.1h41.9v-3c-.4 0-15.2 2.8-15.8-9.9v-39H169c.6 0 7.3 0 14.9-2.4 10.6-3.1 23.1-10.6 23.1-28.5 0-27.9-38-26.3-38-26.3zm24.7 29.2c0 12.3-5.2 18.9-10.9 22-2.2 1.1-20.4 8.7-27.9-.7V5.2h15.2c24.5 0 23.6 24 23.6 26.5z" fill="#ffffff" data-color="1"/>
        <path d="M626.5 70.1c-4.5-8.5-13.1-16.6-25.5-23.3-31.1-16.5-18.3-35.4-18.3-35.4 1.4-2.1 3-4 5.1-5.6 4.6-3.6 11-3.5 16.4-1.7 2.1.7 4.3 1.4 6.2 2.9 1.4 1.4 2.9 2.9 4 4.5 2.2 3.3 3.8 6.8 4.9 10.6 1 3.3 1.8 6.8 2.1 10.2h3V18.2l.3-17.5H622l-.3 2.1c-.3 1.4-.8 2.6-1.6 3.8-1.9 2.8-5.1.3-7.2-1-2.9-2.1-5.7-3.6-9.1-4.5-2.1-.7-4.5-1-6.7-1h-.3c-1.3 0-2.4 0-3.7.2-3.7.3-7.2 1.4-10.5 2.9-4.5 2.4-8.3 6.2-10.5 11.1-2.1 4.7-2.6 10.1-2.2 15.3 0 0 0 6.3 4 13.3 2.2 4.3 5.9 9 12 12.8 11.2 6.9 24 15.3 29.4 24.9v.1c2 3.7 3 7.5 2.5 11.6-1.3 8.7-5.6 16.8-14 18.6-2.9.7-5.9.7-8.9.2l-4-1c-2.2-.9-4-1.6-5.7-3.3-1.6-1.4-2.9-2.8-4.1-4.5-2.2-3.1-3.8-6.6-5.1-10.2-1.6-4.9-2.6-10.1-2.7-15.1v-1H570l.2 19.3-.3 17.9h2.7c0-.7.2-1.6.3-2.3.3-1.4 1-3.1 1.9-4.2 1.3-1.2 2.7-.9 4-.2 1.6.7 2.9 1.9 4.3 2.9 1.4.9 2.9 1.6 4.5 2.3 3 1.4 6.2 2.1 9.6 2.4 3.2.3 6.5.2 9.7-.5 4.6-.7 9.2-2.4 13.1-5.4 5.1-3.8 8.5-9.5 9.9-16.1.5-2.6.6-5.2.6-7.8 0-4.7-1.4-9.5-4-14.2z" fill="#ffffff" data-color="1"/>
        <path d="M425.3 108.7h-15.8c-.3 0-11.2.7-12.5-8.1-.1-.4-.1-1-.1-1.6V15.8c0-.6 0-1.3.1-1.9 1.8-9.7 15.7-9.3 15.7-9.3V2.5h-42v2.1s10.1-.4 12.4 7.8c.3 1 .4 2.1.4 3V99c-.6 11.1-12.8 10.6-12.8 10.6v2.1h79V79.3H446c0 13.7-2.9 29.4-20.7 29.4z" fill="#ffffff" data-color="1"/>
        <path d="M516.2 99V15.5c0-.9.1-1.8.3-2.7 2.1-8.7 12.4-8.2 12.4-8.2V2.5h-38.8v2.1s10.3-.4 12.4 8.2c.1.9.3 1.8.3 2.7v83.3c0 .9-.1 1.9-.4 3-2.2 8.2-12.2 7.8-12.2 7.8v2.1H529v-2.1s-12.2.6-12.8-10.6z" fill="#ffffff" data-color="1"/>
        <path d="M289.6 0C262.7 0 241 25.5 241 57.1c0 31.5 21.8 57.1 48.7 57.1s48.7-25.6 48.7-57.1C338.3 25.5 316.5 0 289.6 0zm0 110.3c-19.1 0-34.6-24.2-34.6-54s15.5-54 34.6-54c19.3 0 34.8 24.2 34.8 54s-15.5 54-34.8 54z" fill="#ffffff" data-color="1"/>
        <path d="M48.7 0C21.8 0 0 25.5 0 57.1c0 31.5 21.8 57.1 48.7 57.1s48.7-25.6 48.7-57.1C97.3 25.5 75.5 0 48.7 0zm0 110.3c-18.8 0-34.1-23.3-34.6-52.4l55.8 41.3c-5.9 7-13.3 11.1-21.2 11.1zm24.1-15.1L14.2 51.8C15.7 24.1 30.5 2.4 48.7 2.4c19.3 0 34.8 24.2 34.8 54-.1 15.2-4.1 29-10.7 38.8z" fill="#ffffff" data-color="1"/>
    </g>
</svg>
