<svg width="16" height="16" viewBox="0 0 16 16" fill="none" xmlns="http://www.w3.org/2000/svg">
<path fill-rule="evenodd" clip-rule="evenodd" d="M14.1017 4.75543C14.1081 4.88503 14.1105 5.01623 14.1105 5.14583C14.1105 9.13783 11.0729 13.7394 5.51849 13.7394C3.81209 13.7394 2.22569 13.2394 0.888885 12.3818C1.12569 12.4098 1.36569 12.4242 1.60889 12.4242C3.02489 12.4242 4.32649 11.941 5.35929 11.1322C4.03849 11.1074 2.92249 10.2354 2.53849 9.03543C2.72249 9.06983 2.91209 9.08823 3.10649 9.08823C3.38249 9.08823 3.64969 9.05223 3.90249 8.98343C2.52089 8.70503 1.48009 7.48503 1.48009 6.02103C1.48009 6.00823 1.48009 5.99623 1.48009 5.98343C1.88729 6.20983 2.35369 6.34583 2.84809 6.36183C2.03769 5.81943 1.50409 4.89623 1.50409 3.84743C1.50409 3.29463 1.65289 2.77543 1.91369 2.32903C3.40249 4.15703 5.62889 5.35863 8.13849 5.48503C8.08729 5.26343 8.06088 5.03383 8.06088 4.79623C8.06088 3.12903 9.41209 1.77783 11.0801 1.77783C11.9489 1.77783 12.7337 2.14343 13.2849 2.73063C13.9721 2.59463 14.6185 2.34343 15.2025 1.99783C14.9769 2.70263 14.4977 3.29463 13.8745 3.66823C14.4857 3.59463 15.0665 3.43383 15.6089 3.19303C15.2041 3.79943 14.6921 4.33063 14.1017 4.75543Z" fill="#1F2534" fill-opacity="0.8"/>
</svg>
