<?xml version="1.0" encoding="UTF-8"?>
<svg xmlns="http://www.w3.org/2000/svg" xmlns:xlink="http://www.w3.org/1999/xlink" width="16px" height="16px" viewBox="0 0 16 16" version="1.1">
<g id="surface1">
<path d="M 3.785156 1.332031 L 4.773438 4.894531 L 4.773438 6.605469 L 5.625 6.605469 L 5.625 4.894531 L 6.625 1.332031 L 5.765625 1.332031 L 5.40625 2.953125 C 5.304688 3.429688 5.242188 3.765625 5.210938 3.964844 L 5.1875 3.964844 C 5.144531 3.683594 5.082031 3.34375 4.992188 2.949219 L 4.648438 1.332031 Z M 7.621094 2.679688 C 7.332031 2.679688 7.097656 2.734375 6.921875 2.851562 C 6.742188 2.964844 6.613281 3.148438 6.527344 3.398438 C 6.445312 3.652344 6.402344 3.984375 6.402344 4.398438 L 6.402344 4.957031 C 6.402344 5.367188 6.4375 5.695312 6.511719 5.945312 C 6.585938 6.191406 6.707031 6.375 6.882812 6.492188 C 7.058594 6.609375 7.296875 6.667969 7.601562 6.667969 C 7.898438 6.667969 8.136719 6.609375 8.308594 6.492188 C 8.480469 6.378906 8.609375 6.195312 8.683594 5.949219 C 8.761719 5.699219 8.800781 5.367188 8.800781 4.957031 L 8.800781 4.398438 C 8.800781 3.984375 8.761719 3.652344 8.683594 3.402344 C 8.601562 3.15625 8.476562 2.972656 8.304688 2.855469 C 8.132812 2.738281 7.90625 2.679688 7.621094 2.679688 Z M 9.253906 2.753906 L 9.253906 5.628906 C 9.253906 5.984375 9.3125 6.246094 9.433594 6.414062 C 9.554688 6.582031 9.742188 6.667969 10 6.667969 C 10.367188 6.667969 10.644531 6.488281 10.828125 6.132812 L 10.847656 6.132812 L 10.921875 6.605469 L 11.601562 6.605469 L 11.601562 2.753906 L 10.734375 2.753906 L 10.734375 5.8125 C 10.699219 5.882812 10.648438 5.941406 10.582031 5.988281 C 10.511719 6.035156 10.441406 6.058594 10.363281 6.058594 C 10.277344 6.058594 10.214844 6.019531 10.175781 5.949219 C 10.136719 5.875 10.117188 5.75 10.117188 5.578125 L 10.117188 2.753906 Z M 7.601562 3.273438 C 7.722656 3.273438 7.808594 3.339844 7.855469 3.464844 C 7.90625 3.59375 7.929688 3.796875 7.929688 4.074219 L 7.929688 5.273438 C 7.929688 5.558594 7.90625 5.761719 7.855469 5.886719 C 7.808594 6.011719 7.722656 6.074219 7.601562 6.078125 C 7.480469 6.078125 7.398438 6.011719 7.351562 5.886719 C 7.304688 5.761719 7.28125 5.558594 7.28125 5.273438 L 7.28125 4.074219 C 7.28125 3.796875 7.304688 3.59375 7.355469 3.464844 C 7.402344 3.339844 7.484375 3.273438 7.601562 3.273438 Z M 3.332031 7.332031 C 2.601562 7.332031 2 7.933594 2 8.667969 L 2 13.332031 C 2 14.066406 2.601562 14.667969 3.332031 14.667969 L 12.667969 14.667969 C 13.398438 14.667969 14 14.066406 14 13.332031 L 14 8.667969 C 14 7.933594 13.398438 7.332031 12.667969 7.332031 Z M 8.03125 8.667969 L 8.738281 8.667969 L 8.738281 10.378906 L 8.742188 10.378906 C 8.804688 10.253906 8.894531 10.15625 9.011719 10.078125 C 9.128906 10.003906 9.257812 9.964844 9.390625 9.964844 C 9.5625 9.964844 9.699219 10.011719 9.796875 10.105469 C 9.898438 10.195312 9.96875 10.34375 10.011719 10.550781 C 10.058594 10.753906 10.078125 11.039062 10.078125 11.402344 L 10.078125 11.917969 C 10.078125 12.402344 10.019531 12.757812 9.902344 12.984375 C 9.785156 13.214844 9.605469 13.328125 9.359375 13.328125 C 9.21875 13.328125 9.09375 13.296875 8.980469 13.234375 C 8.867188 13.167969 8.78125 13.082031 8.726562 12.972656 L 8.710938 12.972656 L 8.636719 13.28125 L 8.03125 13.28125 Z M 3.65625 8.832031 L 5.824219 8.832031 L 5.824219 9.421875 L 5.097656 9.421875 L 5.097656 13.28125 L 4.382812 13.28125 L 4.382812 9.421875 L 3.65625 9.421875 Z M 11.398438 9.96875 C 11.648438 9.96875 11.84375 10.011719 11.976562 10.105469 C 12.109375 10.199219 12.203125 10.339844 12.261719 10.535156 C 12.316406 10.730469 12.34375 11 12.34375 11.339844 L 12.34375 11.898438 L 11.117188 11.898438 L 11.117188 12.0625 C 11.117188 12.273438 11.125 12.429688 11.136719 12.53125 C 11.148438 12.636719 11.175781 12.714844 11.214844 12.761719 C 11.253906 12.808594 11.3125 12.832031 11.394531 12.832031 C 11.503906 12.832031 11.578125 12.789062 11.617188 12.703125 C 11.660156 12.621094 11.679688 12.480469 11.683594 12.28125 L 12.316406 12.316406 C 12.320312 12.347656 12.320312 12.386719 12.320312 12.433594 C 12.320312 12.734375 12.238281 12.960938 12.074219 13.109375 C 11.910156 13.257812 11.679688 13.332031 11.378906 13.332031 C 11.015625 13.332031 10.765625 13.21875 10.617188 12.992188 C 10.472656 12.765625 10.402344 12.414062 10.402344 11.941406 L 10.402344 11.375 C 10.402344 10.886719 10.476562 10.53125 10.625 10.304688 C 10.777344 10.078125 11.035156 9.96875 11.398438 9.96875 Z M 5.605469 10.03125 L 6.339844 10.03125 L 6.339844 12.417969 C 6.339844 12.5625 6.355469 12.664062 6.386719 12.726562 C 6.421875 12.789062 6.472656 12.820312 6.546875 12.820312 C 6.609375 12.820312 6.671875 12.800781 6.730469 12.761719 C 6.789062 12.722656 6.832031 12.671875 6.859375 12.613281 L 6.859375 10.03125 L 7.59375 10.03125 L 7.59375 13.28125 L 7.019531 13.28125 L 6.957031 12.882812 L 6.9375 12.882812 C 6.78125 13.183594 6.550781 13.332031 6.238281 13.332031 C 6.023438 13.332031 5.863281 13.261719 5.761719 13.121094 C 5.660156 12.980469 5.605469 12.757812 5.605469 12.457031 Z M 11.382812 10.460938 C 11.304688 10.460938 11.246094 10.484375 11.210938 10.53125 C 11.171875 10.578125 11.148438 10.652344 11.136719 10.757812 C 11.121094 10.859375 11.117188 11.019531 11.117188 11.230469 L 11.117188 11.464844 L 11.652344 11.464844 L 11.652344 11.230469 C 11.652344 11.023438 11.644531 10.863281 11.632812 10.757812 C 11.617188 10.648438 11.59375 10.574219 11.554688 10.527344 C 11.515625 10.484375 11.460938 10.460938 11.382812 10.460938 Z M 9.0625 10.484375 C 8.992188 10.484375 8.925781 10.511719 8.867188 10.570312 C 8.804688 10.628906 8.761719 10.699219 8.738281 10.789062 L 8.738281 12.632812 C 8.769531 12.691406 8.8125 12.730469 8.863281 12.761719 C 8.914062 12.789062 8.96875 12.804688 9.03125 12.804688 C 9.109375 12.804688 9.167969 12.777344 9.214844 12.71875 C 9.261719 12.660156 9.292969 12.566406 9.3125 12.433594 C 9.332031 12.296875 9.34375 12.113281 9.34375 11.875 L 9.34375 11.457031 C 9.34375 11.203125 9.335938 11.007812 9.320312 10.867188 C 9.304688 10.730469 9.273438 10.632812 9.234375 10.574219 C 9.195312 10.515625 9.136719 10.484375 9.0625 10.484375 Z M 9.0625 10.484375 "/>
</g>
</svg>
